<svg id="Layer_1" data-name="Layer 1" xmlns="http://www.w3.org/2000/svg" viewBox="0 0 453.61 341.02"><defs><style>.cls-1{fill:#82a4e6;}.cls-2{fill:#3b4251;}.cls-3{fill:#365390;}.cls-4{fill:#b7caf0;}.cls-5{fill:#3c4351;}</style></defs><title>logo</title><path class="cls-1" d="M134.08,177c10.67,5.41,21.61,3,32.17.28,32-8.22,60-24.13,85.3-45.19a114.51,114.51,0,0,0,9.89-9.16c7.31-7.73,14.8-15.4,16.51-27.26,2.87,2.66,3.91,5.65,5.54,8.2s-0.69,3.62-1.9,5q-16.47,19.1-33,38.13c-0.51.59-1.27,1.13-.83,2.54L272.17,152c12.9,1.27,25.79,2.63,38.7,3.76a5.69,5.69,0,0,1,5,3.31q11,19.86,22.21,39.64c3.84,6.8,1.82,13.29-1.14,19.57-5,10.59-12.79,19.13-21.47,26.69-23.25,20.27-49.29,35.68-79.37,43.53-9.87,2.58-20,3.7-30.12,1.48a18.21,18.21,0,0,1-12.49-9.1Q183.43,263.32,173,246c-1.66-2.79-2-5.1-.52-8.28,8.46-18.08,16.64-36.3,24.9-54.48,1.15-2.53,2.23-5.08,3.64-8.32l-42.94,9.52c-5.84,1.29-11.73,2.39-17.5,3.93-2.54.68-3.84,0.19-4.37-2.27-0.65-3.06-2.67-5.79-2.1-9.13ZM300.5,159.55c0.66,1.4,1.16,2.61,1.79,3.75,8.6,15.38,17.18,30.76,25.88,46.08,0.9,1.58,1.48,4.87,3.44,4.11,2.7-1,3.5-4.37,3.19-7.27a13.88,13.88,0,0,0-2.09-5c-6.89-12.14-14-24.14-20.68-36.41C309.44,160,306.39,157.7,300.5,159.55Z"/><path class="cls-2" d="M8.4,317.8l63.47-61.65q28.49-27.67,57-55.32c1.29-1.25,2.38-2.72,4.36-3.15,18.78-4.12,37.55-8.29,57.14-12.64-6.53,14.33-12.71,27.88-18.87,41.44Q152.72,267.76,134,309.06c-1.07,2.37-2,4-5.29,4.07-37.6,1.42-75.19,3.08-112.79,4.65C13.78,317.87,11.66,317.8,8.4,317.8Z"/><path class="cls-2" d="M453.61,62.28c-1.08,2-1.81,3.46-2.64,4.86-17.52,29.63-35.11,59.23-52.51,88.94-1.79,3.06-3.53,4-7,3.61-31.78-3.37-63.58-6.53-95.38-9.77q-18.62-1.9-37.26-3.86c-0.1-2,1.42-2.71,2.32-3.75,11.15-12.82,22.37-25.57,33.51-38.4a11.39,11.39,0,0,1,6.12-3.92Q374.53,81.71,448.31,63.3C449.86,62.92,451.45,62.7,453.61,62.28Z"/><path class="cls-3" d="M181.28,104.81q-14.93-25.66-29.83-51.33a4.8,4.8,0,0,0-3.77-2.64c-6.82-1.22-12.06-8.15-11.17-14.3,0.83-5.76,9.11-11.64,15.44-11,6.95,0.75,12,9.28,9.46,16.3-0.71,2-1.1,3.49.1,5.52,10.13,17.19,20.13,34.47,30.18,51.71a16.84,16.84,0,0,0,1.19,1.58,13.33,13.33,0,0,1,2.45-2.41C215,87.55,234.8,77.28,258.27,79c1.16,0.08,2.34.05,3.49,0.21,11.4,1.54,15.45,8.55,11.07,19.22a51.14,51.14,0,0,1-10.89,16c-28.22,29.12-61.89,49-101.26,58.92-7.76,2-15.79,2.65-23.75.69-7.29-1.8-10.17-6.23-9.2-13.6,0.85-6.5,3.83-12,7.78-17,12.19-15.42,28.2-26.19,44.71-36.31a2,2,0,0,1,1,.07,0.42,0.42,0,0,0,.3.5c3.18,5.62,6.33,11.26,9.55,16.86,3,5.21,5,5.59,10.41,2.17,4.86-3.08,5.23-5,1.94-10l-3.57-6.26c-1.71-3.23-3-6.71-6.14-9a31.34,31.34,0,0,0,5.09,9.84l3.6,6.19c2.06,3.8.62,6.19-3,7.9s-5.7.28-7.51-3c-2.92-5.35-6.23-10.49-9.38-15.71Zm-31-75.74c1.8,2.15,3.3,3.9,4.75,5.69s1.87,3.86.48,5.53c-3.12,3.73-1.72,6.81.66,10.11,1.55,2.15,2.75,4.55,4.11,6.83q18.48,31.06,37,62.1c0.59,1,.9,3.08,2.51,2.38,1.83-.8,1-2.47.16-3.81-0.44-.7-0.86-1.42-1.28-2.14Q179,82.48,159.38,49.21c-1.32-2.24-2-4-.62-6.77C162.07,35.82,158.45,30.1,150.24,29.07ZM225.8,89.63a10.38,10.38,0,0,0,5.22-.21c7.39-1.42,14.8-2.27,22.27-.59s9.66,5.63,6.82,12.78c-1.25,3.14-3.05,6.06-4.66,9.19,1.92,0.67,2.89-.54,3.8-1.7a107.49,107.49,0,0,0,6.92-9.12c6.1-9.8,3-15.83-8.42-16.85-1-.09-2-0.09-3-0.1C245,82.93,235.82,85.81,225.8,89.63Z"/><path class="cls-4" d="M260,341a33,33,0,0,1-7.9-.8c-6.89-1.86-10.16-4.87-10.75-11.89-1-12.27,1.89-24,5.49-35.66,0.57-1.83,2.06-2.33,3.65-3,6.42-2.73,12.7-5.79,19.16-8.43C287.33,274,302.79,263.17,317.4,251c1.29-1.08,2.27-1.93,4.34-1.4,11.82,3,23.23,6.86,33.18,14.23,4.55,3.37,5.87,7.7,4.73,13.13-2.65,12.54-11.08,20.92-20.54,28.45-17,13.55-35.57,24.46-56.26,31.45A73,73,0,0,1,260,341Zm35.1-16.38a89.41,89.41,0,0,0,26.43-13.3c12-8.81,23.19-18.4,31-31.24,4.63-7.6,2.93-12.89-4.87-17.32-8.3-4.72-17.37-7.09-26.78-8.69,0.07,1.65,1.19,2.25,2,3,6.19,5.26,12.16,10.83,18.72,15.58,4.26,3.09,3.84,6,1.64,9.65a87.56,87.56,0,0,1-19,21.61C315.11,311.62,305.16,318.18,295.05,324.64Z"/><path class="cls-5" d="M0,198.59L34.29,166.5c9.85-9.21,19.77-18.34,29.5-27.67a14.08,14.08,0,0,1,9.07-4.3c19.05-1.69,38.08-3.7,57.12-5.57,2.28-.22,5.63-0.92,6.57.57,1.26,2-1.7,3.88-3,5.66-7.91,10.9-16,21.7-23.92,32.59A10,10,0,0,1,103.8,172Q54.19,185.1,4.63,198.41A6.79,6.79,0,0,1,0,198.59Z"/><path class="cls-5" d="M232.09,74.07c4.41-7.67,8.43-14.69,12.47-21.7,5.64-9.8,11.31-19.58,16.93-29.39,1.1-1.93,2.27-3.39,4.66-4.06C288.06,12.77,309.93,6.47,331.83.25A14.53,14.53,0,0,1,334.65,0c0.72,1.65-.5,2.34-1.16,3.17q-23,28.94-46,57.84c-1.12,1.41-2.08,2.79-4.2,3.18C266.46,67.35,249.68,70.66,232.09,74.07Z"/><path class="cls-1" d="M134.15,176.94l-0.52-.36a0.54,0.54,0,0,1,.28,0,1.57,1.57,0,0,1,.18.39Z"/></svg>