<svg id="Layer_1" data-name="Layer 1" xmlns="http://www.w3.org/2000/svg" viewBox="0 0 53 53"><defs><style>.cls-1{fill:#fff;}</style></defs><title>social_instagram</title><path class="cls-1" d="M26.44,40.06l0,0A13.64,13.64,0,1,0,12.87,26.4,13.62,13.62,0,0,0,26.49,40.1Zm0-22.42a8.84,8.84,0,1,1-8.84,8.84A8.84,8.84,0,0,1,26.49,17.65Z"/><path class="cls-1" d="M40.59,15.48l0,0a3.2,3.2,0,1,0-3.23-3.21A3.19,3.19,0,0,0,40.64,15.51Z"/><path class="cls-1" d="M1.36,43.86a13.56,13.56,0,0,0,7.76,7.76,19.46,19.46,0,0,0,6.44,1.23c2.83.16,3.73.16,10.93.16s8.1,0,10.93-.16a19.47,19.47,0,0,0,6.44-1.23,13.56,13.56,0,0,0,7.76-7.76,19.47,19.47,0,0,0,1.23-6.44c.13-2.83.16-3.7.16-10.9s0-8.1-.16-10.93a19.47,19.47,0,0,0-1.23-6.44,13.56,13.56,0,0,0-7.76-7.76A19.47,19.47,0,0,0,37.42.16C34.59,0,33.68,0,26.49,0s-8.1,0-10.9.13A19.45,19.45,0,0,0,9.14,1.36,13.56,13.56,0,0,0,1.39,9.11,19.47,19.47,0,0,0,.16,15.55C0,18.38,0,19.29,0,26.49s0,8.1.13,10.93A19.46,19.46,0,0,0,1.36,43.86ZM4.92,15.73a14.67,14.67,0,0,1,.9-4.92,8.78,8.78,0,0,1,5.07-5,14.67,14.67,0,0,1,4.92-.91c2.8-.16,3.64-.16,10.72-.16s7.92,0,10.72.16a14.67,14.67,0,0,1,4.92.91,8.78,8.78,0,0,1,5,5,14.67,14.67,0,0,1,.87,4.92c.11,2.84.11,3.68.11,10.76s0,7.92-.07,10.73a14.67,14.67,0,0,1-.91,4.92,8.78,8.78,0,0,1-5.11,5.06,14.68,14.68,0,0,1-4.92.91c-2.8.16-3.64.16-10.72.16s-7.92,0-10.72-.16a14.68,14.68,0,0,1-4.92-.91,8.78,8.78,0,0,1-5-5.11,14.67,14.67,0,0,1-.91-4.92c-.16-2.8-.16-3.64-.16-10.72S4.79,18.52,4.92,15.73Z"/></svg>