<svg id="Layer_1" data-name="Layer 1" xmlns="http://www.w3.org/2000/svg" width="16" height="12.03" viewBox="0 0 16 12.03"><title>website_icon</title><path d="M4.73,8.23a1.56,1.56,0,0,0,1.14,0,7.63,7.63,0,0,0,3-1.59,3.8,3.8,0,0,0,.35-.32,1.76,1.76,0,0,0,.58-1,1.18,1.18,0,0,1,.19.29c.06.09,0,.13-.07.18L8.77,7.17s0,0,0,.09l.86.09L11,7.48a.2.2,0,0,1,.18.12L11.93,9a.72.72,0,0,1,0,.69,2.93,2.93,0,0,1-.76.94,6.84,6.84,0,0,1-2.8,1.53,2.25,2.25,0,0,1-1.06.05.64.64,0,0,1-.44-.32c-.24-.41-.48-.82-.72-1.23a.27.27,0,0,1,0-.29c.3-.64.59-1.28.88-1.92l.13-.29-1.51.34L5,8.62c-.09,0-.13,0-.16-.08s-.1-.2-.07-.31Zm5.87-.61.06.13.91,1.63c0,.06.05.17.12.14a.24.24,0,0,0,.11-.26.52.52,0,0,0-.07-.18c-.24-.43-.49-.85-.73-1.28C10.91,7.63,10.81,7.55,10.6,7.62Z" transform="translate(0 -1.98)"/><path d="M.3,13.2,2.54,11l2-2A.33.33,0,0,1,4.7,9l2-.44L6,10,4.73,12.89c0,.08-.07.14-.19.14l-4,.16Z" transform="translate(0 -1.98)"/><path d="M16,4.18l-.09.17L14.06,7.49a.21.21,0,0,1-.25.13l-3.37-.35L9.13,7.14c0-.07,0-.1.08-.13l1.18-1.35a.41.41,0,0,1,.22-.14l5.2-1.29Z" transform="translate(0 -1.98)"/><path d="M6.4,5.68,5.34,3.87a.16.16,0,0,0-.13-.09.49.49,0,0,1-.4-.5.56.56,0,0,1,.54-.39.45.45,0,0,1,.34.57.2.2,0,0,0,0,.19L6.76,5.48l0,.06.08-.08a4,4,0,0,1,2.22-.68h.12a.44.44,0,0,1,.39.68A1.82,1.82,0,0,1,9.24,6,7.41,7.41,0,0,1,5.66,8.1a1.73,1.73,0,0,1-.84,0,.38.38,0,0,1-.32-.48A1.22,1.22,0,0,1,4.78,7,5.76,5.76,0,0,1,6.35,5.77h0s0,0,0,0l.34.6c.11.18.18.2.37.08s.18-.18.07-.35L7,5.89a.85.85,0,0,0-.22-.32A1,1,0,0,0,7,5.92l.13.22c.07.13,0,.22-.11.28s-.2,0-.26-.11-.22-.37-.33-.55ZM5.3,3l.17.2a.14.14,0,0,1,0,.19c-.11.13-.06.24,0,.36A2.4,2.4,0,0,1,5.66,4L7,6.19s0,.11.09.08,0-.09,0-.13l0-.07L5.63,3.73a.22.22,0,0,1,0-.24c.11-.24,0-.44-.3-.47ZM8,5.15a.36.36,0,0,0,.18,0,1.91,1.91,0,0,1,.79,0c.26.06.34.2.24.45A2.82,2.82,0,0,1,9,5.89c.07,0,.1,0,.13-.06a3.49,3.49,0,0,0,.24-.32c.22-.35.11-.56-.3-.59H9A2.71,2.71,0,0,0,8,5.15Z" transform="translate(0 -1.98)"/><path d="M9.17,14a1.05,1.05,0,0,1-.28,0c-.24-.07-.36-.17-.38-.42a3.34,3.34,0,0,1,.19-1.26c0-.06.07-.08.13-.11l.68-.3a6.49,6.49,0,0,0,1.69-1.07.15.15,0,0,1,.15,0,3.32,3.32,0,0,1,1.17.5.42.42,0,0,1,.17.46,1.78,1.78,0,0,1-.72,1,6.59,6.59,0,0,1-2,1.11A2.59,2.59,0,0,1,9.17,14Zm1.24-.58a3.09,3.09,0,0,0,.93-.47,4,4,0,0,0,1.09-1.1.38.38,0,0,0-.17-.61,2.86,2.86,0,0,0-.95-.31c0,.06,0,.08.07.11.22.19.43.38.66.55s.13.21.06.34a3.07,3.07,0,0,1-.67.76,8.81,8.81,0,0,1-1,.73Z" transform="translate(0 -1.98)"/><path d="M0,9,1.21,7.86c.35-.32.7-.65,1-1a.5.5,0,0,1,.32-.15l2-.2c.08,0,.2,0,.23,0s-.06.14-.11.2L3.87,7.91a.35.35,0,0,1-.2.15L.17,9A.24.24,0,0,1,0,9Z" transform="translate(0 -1.98)"/><path d="M8.19,4.6l.44-.77.6-1a.27.27,0,0,1,.17-.14L11.71,2h.1c0,.06,0,.08,0,.11l-1.62,2a.24.24,0,0,1-.15.11Z" transform="translate(0 -1.98)"/><path d="M4.73,8.23h0Z" transform="translate(0 -1.98)"/></svg>