<svg id="Layer_1" data-name="Layer 1" xmlns="http://www.w3.org/2000/svg" viewBox="0 0 48.55 46.84"><title>social_linkedin</title><path d="M48.55,25.13c-.65-4.61-2.76-8.29-7.36-9.74s-8.82-1.18-12.37,2.5c-.26.27-.53.79-.92.66s-.4-.79-.4-1.18c.13-1.84-.79-2.24-2.37-2.11H19.61c-2.63,0-2.63,0-2.63,2.63V31.05c0,4.47,0,9.08-.13,13.55,0,1.58.52,2.37,2.23,2.24a49.17,49.17,0,0,1,6.19,0c1.71.13,2.1-.66,2.1-2.24V32.23a25.73,25.73,0,0,1,.13-4.47A5.55,5.55,0,0,1,33,23c2.76-.13,4.47,1.45,5.13,4.35a16.29,16.29,0,0,1,.26,3.55V41.44c0,5.53,0,5.53,5.4,5.53C49,47,49.08,47,49,41.84,48.82,36.31,49.34,30.66,48.55,25.13Z" fill="#fff"/><path d="M5.93,0C2.64.13.14,2.37,0,5.39s2.37,5.53,5.79,5.53a5.6,5.6,0,0,0,6.06-5.39A5.58,5.58,0,0,0,5.93,0Z" fill="#fff"/><path d="M9,15.26a49,49,0,0,1-6.18,0c-1.71,0-2.24.66-2.24,2.24V31.05c0,4.47.13,9.08,0,13.68,0,1.58.53,2.37,2.24,2.24A49,49,0,0,1,9,47c1.71,0,2.24-.66,2.24-2.24V17.5C11.19,15.92,10.66,15.13,9,15.26Z" fill="#fff"/></svg>