<svg id="Layer_1" data-name="Layer 1" xmlns="http://www.w3.org/2000/svg" viewBox="0 0 41.17 53"><title>social_pinterest</title><path d="M22.12,0C7.82,0,.62,10.25.62,18.79c0,5.18,2,9.78,6.16,11.5a1,1,0,0,0,1.5-.75c.14-.53.47-1.87.62-2.42a1.48,1.48,0,0,0-.43-1.68,8.64,8.64,0,0,1-2-5.9c0-7.6,5.69-14.41,14.81-14.41,8.08,0,12.52,4.94,12.52,11.53,0,8.68-3.84,16-9.54,16a4.66,4.66,0,0,1-4.75-5.8c.91-3.81,2.66-7.92,2.66-10.67,0-2.46-1.32-4.52-4.06-4.52-3.21,0-5.8,3.33-5.8,7.79a11.56,11.56,0,0,0,1,4.76S10,38.17,9.41,40.61c-1.15,4.87-.17,10.84-.09,11.44a.4.4,0,0,0,.72.17c.29-.39,4.12-5.12,5.43-9.85.37-1.33,2.11-8.27,2.11-8.27,1.05,2,4.1,3.75,7.35,3.75,9.68,0,16.24-8.81,16.24-20.62C41.17,8.31,33.61,0,22.12,0Z" fill="#fff"/></svg>