<svg id="Layer_1" data-name="Layer 1" xmlns="http://www.w3.org/2000/svg" viewBox="0 0 53 53"><title>social_instagram</title><path d="M26.44,40.06l0,0A13.64,13.64,0,1,0,12.87,26.4,13.61,13.61,0,0,0,26.49,40.1Zm0-22.41a8.84,8.84,0,1,1-8.84,8.84A8.83,8.83,0,0,1,26.49,17.65Z" fill="#fff"/><path d="M40.59,15.48l0,0a3.2,3.2,0,1,0-3.23-3.21A3.19,3.19,0,0,0,40.64,15.51Z" fill="#fff"/><path d="M1.36,43.86a13.51,13.51,0,0,0,7.75,7.75,19.47,19.47,0,0,0,6.44,1.23c2.83.16,3.73.16,10.94.16s8.1,0,10.93-.16a19.42,19.42,0,0,0,6.44-1.23,13.51,13.51,0,0,0,7.75-7.75,19.42,19.42,0,0,0,1.23-6.44c.13-2.83.16-3.7.16-10.91s0-8.1-.16-10.93a19.42,19.42,0,0,0-1.23-6.44,13.51,13.51,0,0,0-7.75-7.75A19.42,19.42,0,0,0,37.42.16C34.59,0,33.68,0,26.49,0S18.38,0,15.58.13A19.42,19.42,0,0,0,9.14,1.36,13.51,13.51,0,0,0,1.39,9.11,19.47,19.47,0,0,0,.16,15.55C0,18.38,0,19.29,0,26.49s0,8.1.13,10.93A19.42,19.42,0,0,0,1.36,43.86ZM4.92,15.73a14.52,14.52,0,0,1,.9-4.92,8.76,8.76,0,0,1,5.07-5,14.78,14.78,0,0,1,4.92-.91c2.8-.16,3.64-.16,10.71-.16s7.93,0,10.72.16a14.78,14.78,0,0,1,4.92.91,8.78,8.78,0,0,1,5,5,14.49,14.49,0,0,1,.87,4.92c.11,2.84.11,3.68.11,10.76s0,7.92-.07,10.72a14.78,14.78,0,0,1-.91,4.92,8.76,8.76,0,0,1-5.11,5.06,14.78,14.78,0,0,1-4.92.91c-2.8.16-3.64.16-10.71.16s-7.93,0-10.72-.16a14.78,14.78,0,0,1-4.92-.91,8.77,8.77,0,0,1-5-5.11,14.78,14.78,0,0,1-.91-4.92c-.16-2.8-.16-3.64-.16-10.71S4.79,18.52,4.92,15.73Z" fill="#fff"/></svg>