<?xml version="1.0" encoding="utf-8"?>
<!-- Generator: Adobe Illustrator 18.1.0, SVG Export Plug-In . SVG Version: 6.00 Build 0)  -->
<svg version="1.1" id="Layer_1" xmlns="http://www.w3.org/2000/svg" xmlns:xlink="http://www.w3.org/1999/xlink" x="0px" y="0px"
	 viewBox="0 0 154 23.6" enable-background="new 0 0 154 23.6" xml:space="preserve">
<path fill="#231F20" d="M16.6,14c-0.7,0.2-1.7,0.7-3.1,1.3c-0.6,0.3-1.3,0.9-2.2,1.6c-2.9-1.6-6.5-3.7-11-6.2
	C0.1,10.7,0,10.6,0,10.6c0-0.4,1.7-0.6,5-0.8L16.6,14z M67.4,20.9c-1.5,1.5-2.6,2.2-3.2,2.2c-1.4-0.1-12-0.5-32-1.2
	c-0.9,0.3-1.8,0.6-2.7,0.9c-2.1,0.6-3.9,0.8-5.5,0.9c-4.5,0.1-7.8-0.6-9.9-1.8c1.7,0,2.6-0.3,2.8-1c0.1-0.2,0.1-0.4,0.1-0.5
	c0-1.2-0.8-1.9-2.5-2.3c-1.6-0.4-2.6,0-3.1,1c-0.3,0.6-0.2,1,0.1,1.4c-0.3-0.2-0.6-0.6-0.9-1.3c-0.2-1.7,2.7-3.6,8.7-5.6
	c2.2-3,4.6-4.4,7.1-4.3c2.6,0.2,5.9,0.5,9.8,1.1c3.2,0.5,5.6,0.7,7.3,0.6c0.7,0,3-3.6,6.8-10.9c0.7,0,1.2,0,1.6,0.1
	c0.3,0.1,0.6,0.2,1.1,0.3l-1.8,8.2l11.6,1.2c-0.1,0.2-0.4,0.4-0.8,0.6c-1,0-4.8-0.1-11.4-0.3l-0.9,3.3c-0.7,0.6-2,1.8-3.9,3.4
	c-0.8,0.6-2.1,1.3-3.7,2.1L67.4,20.9z M15.8,20.5c0,0.7-1,1-3,1c-0.9,0-1.3-0.3-1.3-0.8c0-1.3,0.8-2,2.5-1.9
	C15.2,18.9,15.8,19.5,15.8,20.5z M29.7,11.2c-1.9-0.6-3.6-0.9-5-0.9c-0.6,0-1,0.1-1.4,0.2c-0.8,0.2-1.9,1.2-3.3,3.1
	c0.7,0,2,0.2,3.8,0.4c1.6,0.3,3.4,0.9,5.3,1.8L29.7,11.2z M31.5,15.7l-1.2-4.3l-0.5,4.5L31.5,15.7z M34.9,15.1l-0.8-3.4l-2.9-0.4
	l1.4,4.1L34.9,15.1z M45.3,8.2l-0.8,1.2c-2.9-0.3-6.1-0.7-9.5-1.2c0,0-0.1-0.1-0.1-0.1c0-0.1,0.4-0.3,1.2-0.5L45.3,8.2z"/>
</svg>
