<?xml version="1.0" encoding="utf-8"?>
<!-- Generator: Adobe Illustrator 18.1.0, SVG Export Plug-In . SVG Version: 6.00 Build 0)  -->
<svg version="1.1" id="Layer_1" xmlns="http://www.w3.org/2000/svg" xmlns:xlink="http://www.w3.org/1999/xlink" x="0px" y="0px"
	 viewBox="0 0 64.3 48.1" enable-background="new 0 0 64.3 48.1" xml:space="preserve">
<path fill="#231F20" d="M19.8,18.2l-4.5,6.1L0,28.4l9.8-9.2L19.8,18.2z M27,26.2l-8.2,18L1.4,44.9L18.8,28L27,26.2z M38.9,12.9
	c0,1-0.8,2.4-2.3,4c-1.6,1.6-3.6,3.1-6,4.5c-3.9,2.3-7.2,3.4-9.8,3.4c-1.7,0-2.5-0.6-2.5-1.7c0-2.2,2.5-4.9,7.5-8l1.7,2.9
	c0.2,0.3,0.6,0.3,1.1,0c0.6-0.4,0.8-0.7,0.6-1l-1.7-2.9c3.7-2.1,6.7-3.1,8.9-2.9C38.1,11.2,38.9,11.8,38.9,12.9z M47.9,28.1
	c0.2,0.3,0.3,0.6,0.3,1c0,1.2-0.8,2.6-2.3,4.3c-1.5,1.7-3.5,3.2-5.9,4.6c-3.6,2.1-6.7,3.1-9.3,3.1c-1.5,0-2.5-0.4-3-1.2l-3.3-5.6
	l4.3-9.4l-9,2l-0.6-2c0.3,0.5,0.9,0.7,2,0.7c2.6,0,6-1.2,10-3.5c2.5-1.4,4.5-3,6.1-4.6c1.6-1.6,2.4-2.9,2.4-3.8c0-0.2,0-0.4-0.1-0.6
	l1.1,1.9L35,21.1l9.6,0.9L47.9,28.1z M28.9,17c0.2,0.3,0,0.5-0.4,0.8c-0.5,0.3-0.8,0.3-1,0L21.4,7.2c-0.7,0-1.2-0.3-1.6-0.9
	c-0.6-1-0.4-1.8,0.6-2.3c1-0.6,1.8-0.4,2.4,0.6c0.4,0.6,0.3,1.2-0.1,1.8L28.9,17z M28.6,17L22.4,6.4c0.4-0.6,0.5-1.1,0.4-1.4
	c-0.4-0.8-0.9-1.1-1.6-1c0.3,0.1,0.7,0.5,1.1,1.1c0.1,0.3-0.1,0.7-0.5,1.1l6.6,11.2L28.6,17z M36,11.8c-1.4,0-3.1,0.4-5.1,1.3
	c1.4-0.4,2.6-0.6,3.7-0.6c1.6,0,2.4,0.4,2.4,1.2c0,0.9-0.8,2.1-2.4,3.9c2.3-2.1,3.5-3.6,3.5-4.5C38.2,12.1,37.5,11.8,36,11.8z
	 M47.7,0l-7.3,9.2l-7.5,1.4L37.4,3L47.7,0z M50.8,37.8c0.1,0.2,0.2,0.5,0.2,0.8c0,2.1-2.2,4.4-6.5,7c-3,1.7-5.5,2.6-7.7,2.6
	c-1.2,0-1.9-0.3-2.3-0.9c-0.2-0.3-0.3-0.9-0.3-1.6c0-1.3,0.3-2.8,0.9-4.5c1.2-0.5,2.9-1.2,5.2-2.3c2-1.2,3.7-2.4,5-3.6l2.2,0.6
	C49.3,36.5,50.4,37.2,50.8,37.8z M64.3,8.9l-8.2,13.8l-19.5-2l5.6-6.3L64.3,8.9z M45.2,35.8c2.5,2,3.7,3.1,3.7,3.2
	c0,0.7-0.7,1.8-2.2,3.3c-1.3,1.3-3.4,2.7-6.3,4.3c0.8-0.3,2.1-0.8,3.8-1.7c1.5-0.9,2.9-2,4.2-3.3c1.3-1.3,2-2.4,2-3
	C50.3,37.4,48.6,36.5,45.2,35.8z M47.3,28.6l-3.6-6.2l-1.2,0l4.4,7.9C47.5,29.6,47.6,29.1,47.3,28.6z"/>
</svg>
