<svg id="Layer_1" data-name="Layer 1" xmlns="http://www.w3.org/2000/svg" viewBox="0 0 53 53"><defs><style>.cls-1{fill:#fff;}</style></defs><title>social_linkedin</title><path class="cls-1" d="M47.9,0H4.9C1.4,0,0,1.3,0,4.8V48.4c0,3.4,1.4,4.7,4.8,4.7H48c3.5,0,4.9-1.4,4.9-4.8V5.1C52.9,1.3,51.6,0,47.9,0ZM16.2,35v7.8c0,1.2-.4,1.7-1.7,1.7a36.86,36.86,0,0,0-4.7,0c-1.3.1-1.7-.5-1.7-1.7.1-3.5,0-7,0-10.4V22.1c0-1.2.4-1.7,1.7-1.7a36.86,36.86,0,0,0,4.7,0c1.3-.1,1.7.5,1.7,1.7ZM12.1,17.1a4.1,4.1,0,0,1-4.4-4.2,4.41,4.41,0,0,1,4.5-4.1A4.24,4.24,0,0,1,16.7,13,4.25,4.25,0,0,1,12.1,17.1ZM44.9,40.6c.1,3.9,0,3.9-3.9,3.9-4.1,0-4.1,0-4.1-4.2v-8a12.29,12.29,0,0,0-.2-2.7c-.5-2.2-1.8-3.4-3.9-3.3a4.21,4.21,0,0,0-4.2,3.6,19.33,19.33,0,0,0-.1,3.4v9.4c0,1.2-.3,1.8-1.6,1.7a36.84,36.84,0,0,0-4.7,0c-1.3.1-1.7-.5-1.7-1.7.1-3.4.1-6.9.1-10.3v-10c0-2,0-2,2-2h4.2c1.2-.1,1.9.2,1.8,1.6,0,.3-.1.8.3.9s.5-.3.7-.5c2.7-2.8,6-3,9.4-1.9s5.1,3.9,5.6,7.4C45.2,32.1,44.8,36.4,44.9,40.6Z"/></svg>