<svg id="Layer_1" data-name="Layer 1" xmlns="http://www.w3.org/2000/svg" viewBox="0 0 53 37"><defs><style>.cls-1{fill:#fff;}</style></defs><title>social_youtube</title><path class="cls-1" d="M.76,30c.88,4.5,2.93,6.16,7.43,6.65s9,.39,13.49.49c7.92.29,15.84,0,23.76-.49a6.51,6.51,0,0,0,6.45-5.08,12.56,12.56,0,0,0,.68-3.32,107.76,107.76,0,0,0,.29-14.86A26.09,26.09,0,0,0,51.7,5.21,6.47,6.47,0,0,0,46.91.91a28.45,28.45,0,0,0-3-.39C38.21.12,32.44,0,26.58,0S14.75.12,8.88.42C3.8.71,1.64,2.57.67,7.55c-.1.59-.2,1.27-.29,2A103.63,103.63,0,0,0,.08,23,34.36,34.36,0,0,0,.76,30ZM21,18V11.76c0-.88.29-1.08,1.08-.68,4.11,2.15,8.21,4.3,12.22,6.36.68.39.68.68,0,1.08-4,2.05-8.12,4.2-12.12,6.26-1.08.59-1.17,0-1.17-.88Z"/></svg>