<?xml version="1.0" encoding="utf-8"?>
<!-- Generator: Adobe Illustrator 18.1.0, SVG Export Plug-In . SVG Version: 6.00 Build 0)  -->
<svg version="1.1" id="Layer_1" xmlns="http://www.w3.org/2000/svg" xmlns:xlink="http://www.w3.org/1999/xlink" x="0px" y="0px"
	 viewBox="0 0 63.3 51.8" enable-background="new 0 0 63.3 51.8" xml:space="preserve">
<path fill="#231F20" d="M19.5,39.3c-1.6-3-4-4.5-7.1-4.5c-2.4,0-4.4,0.9-6.1,2.7c-1.7,1.8-2.5,3.9-2.5,6.4v3.3H0v-20
	c0-2.1,1.3-3.1,4-3.1h1.5l3.8-9.3c0.5-1.3,1.5-1.9,2.8-1.9h7.4V39.3z M19.5,44.3c0,2.1-0.7,3.8-2.1,5.3c-1.4,1.5-3.1,2.2-5,2.2
	c-2,0-3.6-0.7-5-2.2c-1.4-1.5-2.1-3.2-2.1-5.3c0-2.1,0.7-3.8,2.1-5.3c1.4-1.5,3.1-2.2,5-2.2c2,0,3.6,0.7,5,2.2
	C18.8,40.5,19.5,42.2,19.5,44.3z M18.2,24.1v-9.2h-7.8L7,24.1H18.2z M63.3,47.1h-1.8v-3.3c0-2.5-0.8-4.6-2.5-6.4
	c-1.7-1.8-3.7-2.7-6.1-2.7c-2.4,0-4.4,0.9-6.1,2.7c-1.7,1.8-2.5,3.9-2.5,6.4l0,3.3H20.8V5.6h42.5V47.1z M31.1,4.7h-5.1L27,0h3.3
	L31.1,4.7z M55.5,27V16.2h-7.6V8.5H37v7.6h-7.7V27H37v7.7h10.9V27H55.5z M60.1,44.3c0,2.1-0.7,3.8-2.1,5.3c-1.4,1.5-3.1,2.2-5,2.2
	c-2,0-3.6-0.7-5-2.2c-1.4-1.5-2.1-3.2-2.1-5.3c0-2.1,0.7-3.8,2.1-5.3c1.4-1.5,3.1-2.2,5-2.2c1.9,0,3.6,0.7,5,2.2
	C59.4,40.5,60.1,42.2,60.1,44.3z"/>
</svg>
