<?xml version="1.0" encoding="utf-8"?>
<!-- Generator: Adobe Illustrator 18.1.0, SVG Export Plug-In . SVG Version: 6.00 Build 0)  -->
<svg version="1.1" id="Layer_1" xmlns="http://www.w3.org/2000/svg" xmlns:xlink="http://www.w3.org/1999/xlink" x="0px" y="0px"
	 viewBox="0 0 55.5 56.6" enable-background="new 0 0 55.5 56.6" xml:space="preserve">
<path fill="#231F20" d="M9.1,12.4L0,13v-1.4L9.1,12.4z M8.8,9.9l-8.2-4l0.7-1.2L8.8,9.9z M7.3,31.9L2.9,28V16.7h4.4v0.6H5.9V28H4.1
	l3.1,2.7V31.9z M10.7,7.4L5.6,1.2l1.2-0.7L10.7,7.4z M47.3,48.9h-1.1v1.7h-1.8v6h-6.8v-3.9c-1.4,0-2.1-0.7-2.3-2H18.7
	c-0.2,1.3-0.9,2-2.3,2v3.9H9.6v-6H7.8v-1.7H6.7v-2.3h1.1l0-30.3c0-0.6,0.3-1.2,0.9-1.7c0.5-0.5,1-0.8,1.5-0.8h33.7
	c0.5,0,1,0.3,1.6,0.8c0.6,0.5,0.8,1.1,0.8,1.7v30.3h1.1V48.9z M46.9,48.6v-1.6H7.1v1.6h7.5c0.5-0.5,1.1-0.8,1.7-0.8
	c0.7,0,1.3,0.3,1.7,0.8h17.8c0.5-0.5,1-0.8,1.7-0.8c0.7,0,1.3,0.3,1.7,0.8H46.9z M14.9,45.8v-4.3H8.9v4.3H14.9z M25.8,28V16.7H9V28
	H25.8z M14.4,13.2h-3.9l0.8-4h2.6L14.4,13.2z M14.6,0l-0.7,7.3L13.2,0H14.6z M18.3,50.3c0-1.3-0.6-1.9-1.9-1.9
	c-1.3,0-1.9,0.6-1.9,1.9c0,1.3,0.6,1.9,1.9,1.9C17.6,52.2,18.3,51.6,18.3,50.3z M37.6,11.7h-3.3V9.8H19.6v1.9h-3.3V6.2h3.3v1.7h14.8
	V6.2h3.3V11.7z M19.6,13.1l-3.3-0.9h3.3V13.1z M37.6,42.9v-1.4H16.4v1.4H37.6z M37.6,45.8v-1.4H16.4v1.4H37.6z M33.7,11.7H20.2v-1.3
	h13.5V11.7z M33.7,13.1H20.2v-0.9h13.5V13.1z M44.9,28V16.7H28.2V28H44.9z M37.6,12.2l-3.3,0.9v-0.9H37.6z M39.5,50.3
	c0-1.3-0.6-1.9-1.9-1.9c-1.3,0-1.9,0.6-1.9,1.9c0,1.3,0.6,1.9,1.9,1.9C38.9,52.2,39.5,51.6,39.5,50.3z M45.1,45.8v-4.3h-6.1v4.3
	H45.1z M40.8,0l-0.6,7.3L39.4,0H40.8z M43.5,13.2h-3.9l0.5-4h2.6L43.5,13.2z M48.4,1.2l-5.1,6.2l3.9-6.9L48.4,1.2z M54,13l-9.1-0.6
	l9.1-0.7V13z M53.4,5.9l-8.2,4l7.5-5.2L53.4,5.9z M51.1,28l-4.4,3.9v-1.2l3.2-2.7h-1.8V17.2h-1.4v-0.6h4.4V28z"/>
</svg>
